<svg width="24" height="24" viewBox="0 0 24 24" fill="none" xmlns="http://www.w3.org/2000/svg">
<g clip-path="url(#clip0_100_345)">
<path d="M11.9998 22C17.5226 22 21.9998 17.5228 21.9998 12C21.9998 6.47715 17.5226 2 11.9998 2C6.47691 2 1.99976 6.47715 1.99976 12C1.99976 17.5228 6.47691 22 11.9998 22Z" fill="#F0F0F0"/>
<path d="M4.06791 5.91187C3.2824 6.93386 2.6901 8.11179 2.34521 9.39144H7.54748L4.06791 5.91187Z" fill="#0052B4"/>
<path d="M21.6562 9.3914C21.3113 8.11179 20.7189 6.93386 19.9335 5.91187L16.454 9.3914H21.6562Z" fill="#0052B4"/>
<path d="M2.34521 14.6086C2.69014 15.8883 3.28244 17.0662 4.06791 18.0881L7.54736 14.6086H2.34521Z" fill="#0052B4"/>
<path d="M18.0885 4.06722C17.0665 3.28171 15.8887 2.6894 14.609 2.34448V7.54671L18.0885 4.06722Z" fill="#0052B4"/>
<path d="M5.91199 19.9328C6.93398 20.7183 8.11191 21.3106 9.39152 21.6556V16.4534L5.91199 19.9328Z" fill="#0052B4"/>
<path d="M9.39148 2.34448C8.11187 2.6894 6.93394 3.28171 5.91199 4.06718L9.39148 7.54667V2.34448Z" fill="#0052B4"/>
<path d="M14.6091 21.6556C15.8887 21.3106 17.0667 20.7183 18.0886 19.9329L14.6091 16.4534V21.6556Z" fill="#0052B4"/>
<path d="M16.454 14.6086L19.9335 18.0882C20.7189 17.0662 21.3113 15.8883 21.6562 14.6086H16.454Z" fill="#0052B4"/>
<path d="M21.9157 10.6957H13.3048H13.3047V2.08465C12.8777 2.02906 12.4424 2 12.0004 2C11.5582 2 11.123 2.02906 10.696 2.08465V10.6956V10.6956H2.08501C2.02943 11.1226 2.00037 11.5579 2.00037 12C2.00037 12.4421 2.02943 12.8774 2.08501 13.3043H10.696H10.696V21.9154C11.123 21.9709 11.5582 22 12.0004 22C12.4424 22 12.8777 21.971 13.3047 21.9154V13.3044V13.3044H21.9157C21.9713 12.8774 22.0004 12.4421 22.0004 12C22.0004 11.5579 21.9713 11.1226 21.9157 10.6957V10.6957Z" fill="#D80027"/>
<path d="M14.6091 14.6087L19.0715 19.071C19.2767 18.8659 19.4725 18.6514 19.6593 18.429L15.8389 14.6086H14.6091V14.6087Z" fill="#D80027"/>
<path d="M9.39171 14.6086H9.39163L4.92932 19.0709C5.13448 19.2762 5.34897 19.472 5.57131 19.6588L9.39171 15.8383V14.6086Z" fill="#D80027"/>
<path d="M9.39171 9.39117V9.39109L4.92937 4.92871C4.72413 5.13387 4.52835 5.34836 4.34155 5.5707L8.16198 9.39113H9.39171V9.39117Z" fill="#D80027"/>
<path d="M14.6091 9.39126L19.0715 4.92884C18.8664 4.7236 18.6519 4.52782 18.4295 4.34106L14.6091 8.16149V9.39126Z" fill="#D80027"/>
</g>
<g style="mix-blend-mode:multiply">
<path d="M22 12C22 17.5228 17.5228 22 12 22C6.47715 22 2 17.5228 2 12C2 6.47715 6.47715 2 12 2C17.5228 2 22 6.47715 22 12ZM3.04625 12C3.04625 16.945 7.05498 20.9537 12 20.9537C16.945 20.9537 20.9537 16.945 20.9537 12C20.9537 7.05498 16.945 3.04625 12 3.04625C7.05498 3.04625 3.04625 7.05498 3.04625 12Z" fill="#C5C5C5"/>
</g>
<defs>
<clipPath id="clip0_100_345">
<rect width="20" height="20" fill="white" transform="translate(2 2)"/>
</clipPath>
</defs>
</svg>
