<svg width="54" height="26" viewBox="0 0 54 26" fill="none" xmlns="http://www.w3.org/2000/svg">
<path d="M13.5979 4.41772V6.06064M13.5979 20.8434V22.4863M7.20822 7.06202L8.37471 8.22851M18.8219 18.6756L19.9883 19.842M4.56403 13.4517H6.20694M20.9897 13.4517H22.6326M7.20822 19.842L8.37471 18.6756M18.8219 8.22851L19.9883 7.06202M17.7052 13.4524C17.7052 14.2646 17.4643 15.0586 17.0131 15.7339C16.5619 16.4092 15.9205 16.9356 15.1701 17.2464C14.4197 17.5572 13.594 17.6385 12.7974 17.4801C12.0008 17.3216 11.2691 16.9305 10.6948 16.3562C10.1205 15.7819 9.72935 15.0501 9.5709 14.2535C9.41244 13.4569 9.49377 12.6312 9.80459 11.8809C10.1154 11.1305 10.6418 10.4891 11.3171 10.0379C11.9924 9.58663 12.7864 9.34579 13.5986 9.34579C14.6877 9.34579 15.7323 9.77844 16.5024 10.5486C17.2725 11.3187 17.7052 12.3632 17.7052 13.4524Z" stroke="#DBE9FD" stroke-width="2.10811" stroke-linecap="round" stroke-linejoin="round"/>
<path d="M43.1771 19.9263C44.2923 20.005 45.4111 19.8332 46.4514 19.4235C47.4917 19.0138 48.4271 18.3767 49.1893 17.5586C49.239 17.506 49.2713 17.4394 49.2818 17.3677C49.2922 17.2961 49.2802 17.223 49.2475 17.1584C49.2148 17.0938 49.1629 17.0409 49.099 17.0069C49.035 16.9729 48.9622 16.9595 48.8903 16.9686C47.5072 17.1326 46.1107 16.8007 44.9493 16.0318C43.788 15.2629 42.937 14.1069 42.5479 12.7696C42.1588 11.4322 42.2567 10.0002 42.8243 8.72822C43.3918 7.45628 44.3922 6.42693 45.6474 5.8233C45.7128 5.79232 45.7671 5.7419 45.8027 5.67893C45.8384 5.61595 45.8537 5.54351 45.8467 5.47149C45.8396 5.39946 45.8105 5.33138 45.7633 5.27654C45.716 5.2217 45.653 5.18278 45.5829 5.16509C44.5721 4.90424 43.5181 4.85694 42.4881 5.02619C41.458 5.19544 40.4746 5.57753 39.6004 6.14808C38.7263 6.71864 37.9807 7.46513 37.4112 8.33993C36.8417 9.21474 36.4607 10.1986 36.2927 11.2289C36.1247 12.2591 36.1732 13.3131 36.4353 14.3235C36.6973 15.334 37.1671 16.2787 37.8146 17.0974C38.4621 17.9162 39.2732 18.5909 40.1961 19.0787C41.119 19.5665 42.1334 19.8565 43.1747 19.9304L43.1771 19.9263Z" fill="#DBE9FD"/>
<path d="M40.4054 0.351318H13C6.01431 0.351318 0.351318 6.01431 0.351318 13C0.351318 19.9856 6.01431 25.6486 13 25.6486H40.4054C47.391 25.6486 53.054 19.9856 53.054 13C53.054 6.01431 47.391 0.351318 40.4054 0.351318Z" stroke="#DBE9FD" stroke-width="0.702703"/>
</svg>
