<svg width="24" height="25" viewBox="0 0 24 25" fill="none" xmlns="http://www.w3.org/2000/svg">
<g clip-path="url(#clip0_3_180)">
<path d="M13 20.2642C15.0173 20.0075 16.8611 18.9923 18.1568 17.425C19.4525 15.8576 20.1027 13.8557 19.9754 11.8261C19.848 9.79658 18.9527 7.89166 17.4713 6.49855C15.9898 5.10544 14.0336 4.32869 12 4.32617C9.96396 4.32466 8.00395 5.09951 6.51934 6.49285C5.03473 7.88619 4.13724 9.79316 4.00974 11.8252C3.88225 13.8573 4.53434 15.8615 5.83314 17.4294C7.13195 18.9974 8.97974 20.0112 11 20.2642V14.3262H9V12.3262H11V10.6722C11 9.33517 11.14 8.85017 11.4 8.36117C11.6561 7.87736 12.052 7.48186 12.536 7.22617C12.918 7.02117 13.393 6.89817 14.223 6.84517C14.552 6.82417 14.978 6.85017 15.501 6.92517V8.82517H15C14.083 8.82517 13.704 8.86817 13.478 8.98917C13.3431 9.05853 13.2334 9.16832 13.164 9.30317C13.044 9.52917 13 9.75317 13 10.6712V12.3262H15.5L15 14.3262H13V20.2642ZM12 22.3262C6.477 22.3262 2 17.8492 2 12.3262C2 6.80317 6.477 2.32617 12 2.32617C17.523 2.32617 22 6.80317 22 12.3262C22 17.8492 17.523 22.3262 12 22.3262Z" fill="white"/>
</g>
<defs>
<clipPath id="clip0_3_180">
<rect width="24" height="24" fill="white" transform="translate(0 0.326172)"/>
</clipPath>
</defs>
</svg>
