<svg width="24" height="25" viewBox="0 0 24 25" fill="none" xmlns="http://www.w3.org/2000/svg">
<g clip-path="url(#clip0_3_125)">
<path d="M12 22.3262C6.477 22.3262 2 17.8492 2 12.3262C2 6.80317 6.477 2.32617 12 2.32617C17.523 2.32617 22 6.80317 22 12.3262C22 17.8492 17.523 22.3262 12 22.3262ZM12 20.3262C14.1217 20.3262 16.1566 19.4833 17.6569 17.983C19.1571 16.4827 20 14.4479 20 12.3262C20 10.2044 19.1571 8.16961 17.6569 6.66932C16.1566 5.16903 14.1217 4.32617 12 4.32617C9.87827 4.32617 7.84344 5.16903 6.34315 6.66932C4.84285 8.16961 4 10.2044 4 12.3262C4 14.4479 4.84285 16.4827 6.34315 17.983C7.84344 19.4833 9.87827 20.3262 12 20.3262ZM11 15.3262H13V17.3262H11V15.3262ZM13 13.6812V14.3262H11V12.8262C11 12.561 11.1054 12.3066 11.2929 12.1191C11.4804 11.9315 11.7348 11.8262 12 11.8262C12.2841 11.8262 12.5623 11.7455 12.8023 11.5935C13.0423 11.4415 13.2343 11.2245 13.3558 10.9678C13.4773 10.711 13.5234 10.425 13.4887 10.143C13.454 9.86106 13.34 9.59476 13.1598 9.37508C12.9797 9.15541 12.7409 8.9914 12.4712 8.90214C12.2015 8.81288 11.912 8.80204 11.6364 8.87088C11.3608 8.93972 11.1104 9.0854 10.9144 9.29099C10.7183 9.49657 10.5847 9.7536 10.529 10.0322L8.567 9.63917C8.68863 9.03126 8.96951 8.46654 9.38092 8.00276C9.79233 7.53897 10.3195 7.19275 10.9086 6.99949C11.4977 6.80623 12.1275 6.77286 12.7337 6.90279C13.3399 7.03272 13.9007 7.32129 14.3588 7.739C14.8169 8.15671 15.1559 8.68858 15.3411 9.28024C15.5263 9.87189 15.5511 10.5021 15.4129 11.1065C15.2747 11.7108 14.9785 12.2677 14.5545 12.72C14.1306 13.1724 13.5941 13.5041 13 13.6812Z" fill="white"/>
</g>
<defs>
<clipPath id="clip0_3_125">
<rect width="24" height="24" fill="white" transform="translate(0 0.326172)"/>
</clipPath>
</defs>
</svg>
