<svg width="24" height="25" viewBox="0 0 24 25" fill="none" xmlns="http://www.w3.org/2000/svg">
<g clip-path="url(#clip0_3_124)">
<path d="M2.21301 14.3862C1.92542 13.0279 1.92542 11.6245 2.21301 10.2662C3.32301 10.3962 4.29301 10.0292 4.60901 9.26518C4.92601 8.50018 4.50101 7.55518 3.62301 6.86218C4.38005 5.6985 5.37233 4.70622 6.53601 3.94918C7.22801 4.82618 8.17401 5.25218 8.93901 4.93518C9.70401 4.61818 10.071 3.64918 9.94001 2.53918C11.2983 2.25159 12.7017 2.25159 14.06 2.53918C13.93 3.64918 14.297 4.61918 15.061 4.93518C15.826 5.25218 16.771 4.82718 17.464 3.94918C18.6277 4.70622 19.62 5.6985 20.377 6.86218C19.5 7.55418 19.074 8.50018 19.391 9.26518C19.708 10.0302 20.677 10.3972 21.787 10.2662C22.0746 11.6245 22.0746 13.0279 21.787 14.3862C20.677 14.2562 19.707 14.6232 19.391 15.3872C19.074 16.1522 19.499 17.0972 20.377 17.7902C19.62 18.9539 18.6277 19.9461 17.464 20.7032C16.772 19.8262 15.826 19.4002 15.061 19.7172C14.296 20.0342 13.929 21.0032 14.06 22.1132C12.7017 22.4008 11.2983 22.4008 9.94001 22.1132C10.07 21.0032 9.70301 20.0332 8.93901 19.7172C8.17401 19.4002 7.22901 19.8252 6.53601 20.7032C5.37233 19.9461 4.38005 18.9539 3.62301 17.7902C4.50001 17.0982 4.92601 16.1522 4.60901 15.3872C4.29201 14.6222 3.32301 14.2552 2.21301 14.3862ZM4.00001 12.5362C5.10001 12.8412 6.00701 13.5382 6.45701 14.6222C6.90601 15.7072 6.75701 16.8422 6.19501 17.8342C6.29101 17.9362 6.39001 18.0352 6.49201 18.1312C7.48501 17.5692 8.61901 17.4212 9.70401 17.8692C10.788 18.3192 11.485 19.2262 11.79 20.3262C11.93 20.3302 12.07 20.3302 12.21 20.3262C12.515 19.2262 13.212 18.3192 14.296 17.8692C15.381 17.4202 16.516 17.5692 17.508 18.1312C17.61 18.0352 17.709 17.9362 17.805 17.8342C17.243 16.8412 17.095 15.7072 17.543 14.6222C17.993 13.5382 18.9 12.8412 20 12.5362C20.004 12.3962 20.004 12.2562 20 12.1162C18.9 11.8112 17.993 11.1142 17.543 10.0302C17.094 8.94518 17.243 7.81018 17.805 6.81818C17.7086 6.71658 17.6096 6.61754 17.508 6.52118C16.515 7.08318 15.381 7.23118 14.296 6.78318C13.212 6.33318 12.515 5.42618 12.21 4.32618C12.07 4.32247 11.93 4.32247 11.79 4.32618C11.485 5.42618 10.788 6.33318 9.70401 6.78318C8.61901 7.23218 7.48401 7.08318 6.49201 6.52118C6.39001 6.61718 6.29101 6.71618 6.19501 6.81818C6.75701 7.81118 6.90501 8.94518 6.45701 10.0302C6.00701 11.1142 5.10001 11.8112 4.00001 12.1162C3.99601 12.2562 3.99601 12.3962 4.00001 12.5362ZM12 15.3262C11.2044 15.3262 10.4413 15.0101 9.87869 14.4475C9.31608 13.8849 9.00001 13.1218 9.00001 12.3262C9.00001 11.5305 9.31608 10.7675 9.87869 10.2049C10.4413 9.64225 11.2044 9.32618 12 9.32618C12.7957 9.32618 13.5587 9.64225 14.1213 10.2049C14.6839 10.7675 15 11.5305 15 12.3262C15 13.1218 14.6839 13.8849 14.1213 14.4475C13.5587 15.0101 12.7957 15.3262 12 15.3262ZM12 13.3262C12.2652 13.3262 12.5196 13.2208 12.7071 13.0333C12.8946 12.8457 13 12.5914 13 12.3262C13 12.061 12.8946 11.8066 12.7071 11.6191C12.5196 11.4315 12.2652 11.3262 12 11.3262C11.7348 11.3262 11.4804 11.4315 11.2929 11.6191C11.1054 11.8066 11 12.061 11 12.3262C11 12.5914 11.1054 12.8457 11.2929 13.0333C11.4804 13.2208 11.7348 13.3262 12 13.3262Z" fill="white"/>
</g>
<defs>
<clipPath id="clip0_3_124">
<rect width="24" height="24" fill="white" transform="translate(0 0.326172)"/>
</clipPath>
</defs>
</svg>
