<svg width="28" height="27" viewBox="0 0 28 27" fill="none" xmlns="http://www.w3.org/2000/svg">
<path d="M5.23197 7.5H4.76606L5.81293 4.59091H6.32004L7.36691 7.5H6.901L6.07856 5.11932H6.05583L5.23197 7.5ZM5.31009 6.3608H6.82146V6.73011H5.31009V6.3608ZM7.78701 7.5V4.59091H8.85235C9.05879 4.59091 9.22972 4.625 9.36513 4.69318C9.50055 4.76042 9.60188 4.8518 9.66911 4.96733C9.73635 5.08191 9.76996 5.21117 9.76996 5.35511C9.76996 5.47633 9.74771 5.5786 9.7032 5.66193C9.6587 5.74432 9.59904 5.81061 9.52423 5.8608C9.45036 5.91004 9.36892 5.94602 9.27991 5.96875V5.99716C9.3765 6.00189 9.47072 6.03314 9.56258 6.09091C9.65538 6.14773 9.73209 6.22869 9.79269 6.33381C9.8533 6.43892 9.8836 6.56676 9.8836 6.71733C9.8836 6.866 9.84856 6.99953 9.77849 7.1179C9.70936 7.23532 9.60235 7.3286 9.45746 7.39773C9.31258 7.46591 9.12745 7.5 8.90207 7.5H7.78701ZM8.22593 7.12358H8.85945C9.06968 7.12358 9.22025 7.08286 9.31116 7.00142C9.40207 6.91998 9.44752 6.81818 9.44752 6.69602C9.44752 6.60417 9.42432 6.51989 9.37792 6.44318C9.33152 6.36648 9.26523 6.3054 9.17905 6.25994C9.09383 6.21449 8.9925 6.19176 8.87508 6.19176H8.22593V7.12358ZM8.22593 5.84943H8.814C8.91248 5.84943 9.00102 5.83049 9.07962 5.79261C9.15917 5.75473 9.22214 5.7017 9.26854 5.63352C9.31589 5.56439 9.33957 5.48295 9.33957 5.3892C9.33957 5.26894 9.29743 5.16809 9.21315 5.08665C9.12887 5.00521 8.9996 4.96449 8.82536 4.96449H8.22593V5.84943ZM12.8204 5.53693H12.3772C12.3602 5.44223 12.3284 5.3589 12.282 5.28693C12.2356 5.21496 12.1788 5.15388 12.1116 5.10369C12.0443 5.0535 11.9691 5.01562 11.8857 4.99006C11.8033 4.96449 11.7158 4.9517 11.6229 4.9517C11.4553 4.9517 11.3052 4.99384 11.1727 5.07812C11.041 5.16241 10.9369 5.28598 10.8602 5.44886C10.7844 5.61174 10.7465 5.81061 10.7465 6.04545C10.7465 6.2822 10.7844 6.48201 10.8602 6.64489C10.9369 6.80777 11.0415 6.93087 11.1741 7.0142C11.3067 7.09754 11.4558 7.1392 11.6215 7.1392C11.7134 7.1392 11.8005 7.12689 11.8829 7.10227C11.9662 7.0767 12.0415 7.0393 12.1087 6.99006C12.176 6.94081 12.2328 6.88068 12.2792 6.80966C12.3265 6.73769 12.3592 6.6553 12.3772 6.5625L12.8204 6.56392C12.7967 6.70691 12.7508 6.83854 12.6826 6.95881C12.6154 7.07812 12.5287 7.18134 12.4227 7.26847C12.3175 7.35464 12.1973 7.4214 12.0619 7.46875C11.9265 7.5161 11.7787 7.53977 11.6187 7.53977C11.3668 7.53977 11.1424 7.48011 10.9454 7.3608C10.7484 7.24053 10.5931 7.06866 10.4795 6.84517C10.3668 6.62169 10.3104 6.35511 10.3104 6.04545C10.3104 5.73485 10.3673 5.46828 10.4809 5.24574C10.5945 5.02225 10.7498 4.85085 10.9468 4.73153C11.1438 4.61127 11.3677 4.55114 11.6187 4.55114C11.773 4.55114 11.917 4.57339 12.0505 4.6179C12.185 4.66146 12.3057 4.72585 12.4127 4.81108C12.5197 4.89536 12.6083 4.99858 12.6783 5.12074C12.7484 5.24195 12.7958 5.38068 12.8204 5.53693Z" fill="#2D62ED"/>
<g clip-path="url(#clip0_17_1275)">
<path d="M10.9725 16.3993C11.3599 16.7729 11.9734 16.7728 12.3608 16.3993L21.6968 7.39574C22.0841 7.02226 22.6974 7.02214 23.0848 7.39546L23.2945 7.59748C23.7025 7.99068 23.7027 8.64406 23.2947 9.03741L12.3608 19.5808C11.9734 19.9544 11.3599 19.9544 10.9725 19.5808L4.98851 13.8105C4.58069 13.4173 4.58069 12.7641 4.98851 12.3708L5.19754 12.1693C5.58491 11.7957 6.19843 11.7957 6.58581 12.1693L10.9725 16.3993Z" fill="#2D62ED"/>
</g>
<defs>
<clipPath id="clip0_17_1275">
<rect width="28" height="27" fill="white"/>
</clipPath>
</defs>
</svg>
